<mxfile host="app.diagrams.net" agent="Mozilla/5.0 (Macintosh; Intel Mac OS X 10_15_7) AppleWebKit/537.36 (KHTML, like Gecko) Chrome/126.0.0.0 Safari/537.36" version="24.8.6">
  <diagram name="Страница — 1" id="WvAe95_GHFCQsm5EFjYM">
    <mxGraphModel dx="888" dy="974" grid="1" gridSize="10" guides="1" tooltips="1" connect="1" arrows="1" fold="1" page="1" pageScale="1" pageWidth="827" pageHeight="1169" math="0" shadow="0">
      <root>
        <mxCell id="0" />
        <mxCell id="1" parent="0" />
        <mxCell id="19RlmkvOXlg0cIkhi3ER-1" value="User" style="swimlane;fontStyle=0;childLayout=stackLayout;horizontal=1;startSize=30;horizontalStack=0;resizeParent=1;resizeParentMax=0;resizeLast=0;collapsible=1;marginBottom=0;whiteSpace=wrap;html=1;" vertex="1" parent="1">
          <mxGeometry x="240" y="220" width="140" height="160" as="geometry">
            <mxRectangle x="90" y="350" width="70" height="30" as="alternateBounds" />
          </mxGeometry>
        </mxCell>
        <mxCell id="19RlmkvOXlg0cIkhi3ER-2" value="user_id&amp;nbsp; INT&amp;nbsp; &lt;font color=&quot;#ff8000&quot;&gt;(PK)&lt;/font&gt;" style="text;strokeColor=none;fillColor=none;align=left;verticalAlign=middle;spacingLeft=4;spacingRight=4;overflow=hidden;points=[[0,0.5],[1,0.5]];portConstraint=eastwest;rotatable=0;whiteSpace=wrap;html=1;" vertex="1" parent="19RlmkvOXlg0cIkhi3ER-1">
          <mxGeometry y="30" width="140" height="30" as="geometry" />
        </mxCell>
        <mxCell id="19RlmkvOXlg0cIkhi3ER-3" value="name VARCHAR" style="text;strokeColor=none;fillColor=none;align=left;verticalAlign=middle;spacingLeft=4;spacingRight=4;overflow=hidden;points=[[0,0.5],[1,0.5]];portConstraint=eastwest;rotatable=0;whiteSpace=wrap;html=1;" vertex="1" parent="19RlmkvOXlg0cIkhi3ER-1">
          <mxGeometry y="60" width="140" height="30" as="geometry" />
        </mxCell>
        <mxCell id="19RlmkvOXlg0cIkhi3ER-6" value="last_name VARCHAR" style="text;strokeColor=none;fillColor=none;align=left;verticalAlign=middle;spacingLeft=4;spacingRight=4;overflow=hidden;points=[[0,0.5],[1,0.5]];portConstraint=eastwest;rotatable=0;whiteSpace=wrap;html=1;" vertex="1" parent="19RlmkvOXlg0cIkhi3ER-1">
          <mxGeometry y="90" width="140" height="30" as="geometry" />
        </mxCell>
        <mxCell id="19RlmkvOXlg0cIkhi3ER-4" value="email VARCHAR" style="text;strokeColor=none;fillColor=none;align=left;verticalAlign=middle;spacingLeft=4;spacingRight=4;overflow=hidden;points=[[0,0.5],[1,0.5]];portConstraint=eastwest;rotatable=0;whiteSpace=wrap;html=1;" vertex="1" parent="19RlmkvOXlg0cIkhi3ER-1">
          <mxGeometry y="120" width="140" height="40" as="geometry" />
        </mxCell>
        <mxCell id="19RlmkvOXlg0cIkhi3ER-7" value="Product" style="swimlane;fontStyle=0;childLayout=stackLayout;horizontal=1;startSize=30;horizontalStack=0;resizeParent=1;resizeParentMax=0;resizeLast=0;collapsible=1;marginBottom=0;whiteSpace=wrap;html=1;" vertex="1" parent="1">
          <mxGeometry x="480" y="510" width="140" height="150" as="geometry" />
        </mxCell>
        <mxCell id="19RlmkvOXlg0cIkhi3ER-8" value="product_id&amp;nbsp; INT&amp;nbsp;&amp;nbsp;&lt;span style=&quot;color: rgb(255, 128, 0);&quot;&gt;(PK)&lt;/span&gt;" style="text;strokeColor=none;fillColor=none;align=left;verticalAlign=middle;spacingLeft=4;spacingRight=4;overflow=hidden;points=[[0,0.5],[1,0.5]];portConstraint=eastwest;rotatable=0;whiteSpace=wrap;html=1;" vertex="1" parent="19RlmkvOXlg0cIkhi3ER-7">
          <mxGeometry y="30" width="140" height="30" as="geometry" />
        </mxCell>
        <mxCell id="19RlmkvOXlg0cIkhi3ER-9" value="title&amp;nbsp; VARCHAR" style="text;strokeColor=none;fillColor=none;align=left;verticalAlign=middle;spacingLeft=4;spacingRight=4;overflow=hidden;points=[[0,0.5],[1,0.5]];portConstraint=eastwest;rotatable=0;whiteSpace=wrap;html=1;" vertex="1" parent="19RlmkvOXlg0cIkhi3ER-7">
          <mxGeometry y="60" width="140" height="30" as="geometry" />
        </mxCell>
        <mxCell id="19RlmkvOXlg0cIkhi3ER-10" value="description TEXT" style="text;strokeColor=none;fillColor=none;align=left;verticalAlign=middle;spacingLeft=4;spacingRight=4;overflow=hidden;points=[[0,0.5],[1,0.5]];portConstraint=eastwest;rotatable=0;whiteSpace=wrap;html=1;" vertex="1" parent="19RlmkvOXlg0cIkhi3ER-7">
          <mxGeometry y="90" width="140" height="30" as="geometry" />
        </mxCell>
        <mxCell id="19RlmkvOXlg0cIkhi3ER-36" value="price FLOAT" style="text;strokeColor=none;fillColor=none;align=left;verticalAlign=middle;spacingLeft=4;spacingRight=4;overflow=hidden;points=[[0,0.5],[1,0.5]];portConstraint=eastwest;rotatable=0;whiteSpace=wrap;html=1;" vertex="1" parent="19RlmkvOXlg0cIkhi3ER-7">
          <mxGeometry y="120" width="140" height="30" as="geometry" />
        </mxCell>
        <mxCell id="19RlmkvOXlg0cIkhi3ER-11" value="Review" style="swimlane;fontStyle=0;childLayout=stackLayout;horizontal=1;startSize=30;horizontalStack=0;resizeParent=1;resizeParentMax=0;resizeLast=0;collapsible=1;marginBottom=0;whiteSpace=wrap;html=1;" vertex="1" parent="1">
          <mxGeometry x="240" y="480" width="140" height="240" as="geometry" />
        </mxCell>
        <mxCell id="19RlmkvOXlg0cIkhi3ER-12" value="review_id INT&amp;nbsp;&amp;nbsp;&lt;span style=&quot;color: rgb(255, 128, 0);&quot;&gt;(PK)&lt;/span&gt;" style="text;strokeColor=none;fillColor=none;align=left;verticalAlign=middle;spacingLeft=4;spacingRight=4;overflow=hidden;points=[[0,0.5],[1,0.5]];portConstraint=eastwest;rotatable=0;whiteSpace=wrap;html=1;" vertex="1" parent="19RlmkvOXlg0cIkhi3ER-11">
          <mxGeometry y="30" width="140" height="30" as="geometry" />
        </mxCell>
        <mxCell id="19RlmkvOXlg0cIkhi3ER-13" value="content&amp;nbsp; TEXT" style="text;strokeColor=none;fillColor=none;align=left;verticalAlign=middle;spacingLeft=4;spacingRight=4;overflow=hidden;points=[[0,0.5],[1,0.5]];portConstraint=eastwest;rotatable=0;whiteSpace=wrap;html=1;" vertex="1" parent="19RlmkvOXlg0cIkhi3ER-11">
          <mxGeometry y="60" width="140" height="30" as="geometry" />
        </mxCell>
        <mxCell id="19RlmkvOXlg0cIkhi3ER-14" value="reting&amp;nbsp; FLOAT" style="text;strokeColor=none;fillColor=none;align=left;verticalAlign=middle;spacingLeft=4;spacingRight=4;overflow=hidden;points=[[0,0.5],[1,0.5]];portConstraint=eastwest;rotatable=0;whiteSpace=wrap;html=1;" vertex="1" parent="19RlmkvOXlg0cIkhi3ER-11">
          <mxGeometry y="90" width="140" height="40" as="geometry" />
        </mxCell>
        <mxCell id="19RlmkvOXlg0cIkhi3ER-19" value="date&amp;nbsp; DateTime" style="text;strokeColor=none;fillColor=none;align=left;verticalAlign=middle;spacingLeft=4;spacingRight=4;overflow=hidden;points=[[0,0.5],[1,0.5]];portConstraint=eastwest;rotatable=0;whiteSpace=wrap;html=1;" vertex="1" parent="19RlmkvOXlg0cIkhi3ER-11">
          <mxGeometry y="130" width="140" height="40" as="geometry" />
        </mxCell>
        <mxCell id="19RlmkvOXlg0cIkhi3ER-20" value="user_id &lt;font color=&quot;#0000ff&quot;&gt;(FK)&lt;/font&gt;" style="text;strokeColor=none;fillColor=none;align=left;verticalAlign=middle;spacingLeft=4;spacingRight=4;overflow=hidden;points=[[0,0.5],[1,0.5]];portConstraint=eastwest;rotatable=0;whiteSpace=wrap;html=1;" vertex="1" parent="19RlmkvOXlg0cIkhi3ER-11">
          <mxGeometry y="170" width="140" height="40" as="geometry" />
        </mxCell>
        <mxCell id="19RlmkvOXlg0cIkhi3ER-21" value="product_id&amp;nbsp;&amp;nbsp;&lt;span style=&quot;color: rgb(0, 0, 255);&quot;&gt;(FK)&lt;/span&gt;" style="text;strokeColor=none;fillColor=none;align=left;verticalAlign=middle;spacingLeft=4;spacingRight=4;overflow=hidden;points=[[0,0.5],[1,0.5]];portConstraint=eastwest;rotatable=0;whiteSpace=wrap;html=1;" vertex="1" parent="19RlmkvOXlg0cIkhi3ER-11">
          <mxGeometry y="210" width="140" height="30" as="geometry" />
        </mxCell>
        <mxCell id="19RlmkvOXlg0cIkhi3ER-15" value="MediaFile" style="swimlane;fontStyle=0;childLayout=stackLayout;horizontal=1;startSize=30;horizontalStack=0;resizeParent=1;resizeParentMax=0;resizeLast=0;collapsible=1;marginBottom=0;whiteSpace=wrap;html=1;" vertex="1" parent="1">
          <mxGeometry x="250" y="790" width="140" height="150" as="geometry" />
        </mxCell>
        <mxCell id="19RlmkvOXlg0cIkhi3ER-16" value="media_id&amp;nbsp; INT&amp;nbsp;&amp;nbsp;&lt;span style=&quot;color: rgb(255, 128, 0);&quot;&gt;(PK)&lt;/span&gt;" style="text;strokeColor=none;fillColor=none;align=left;verticalAlign=middle;spacingLeft=4;spacingRight=4;overflow=hidden;points=[[0,0.5],[1,0.5]];portConstraint=eastwest;rotatable=0;whiteSpace=wrap;html=1;" vertex="1" parent="19RlmkvOXlg0cIkhi3ER-15">
          <mxGeometry y="30" width="140" height="30" as="geometry" />
        </mxCell>
        <mxCell id="19RlmkvOXlg0cIkhi3ER-17" value="URL&amp;nbsp; VARCHAR" style="text;strokeColor=none;fillColor=none;align=left;verticalAlign=middle;spacingLeft=4;spacingRight=4;overflow=hidden;points=[[0,0.5],[1,0.5]];portConstraint=eastwest;rotatable=0;whiteSpace=wrap;html=1;" vertex="1" parent="19RlmkvOXlg0cIkhi3ER-15">
          <mxGeometry y="60" width="140" height="30" as="geometry" />
        </mxCell>
        <mxCell id="19RlmkvOXlg0cIkhi3ER-18" value="type ENUM" style="text;strokeColor=none;fillColor=none;align=left;verticalAlign=middle;spacingLeft=4;spacingRight=4;overflow=hidden;points=[[0,0.5],[1,0.5]];portConstraint=eastwest;rotatable=0;whiteSpace=wrap;html=1;" vertex="1" parent="19RlmkvOXlg0cIkhi3ER-15">
          <mxGeometry y="90" width="140" height="30" as="geometry" />
        </mxCell>
        <mxCell id="19RlmkvOXlg0cIkhi3ER-22" value="review_id&amp;nbsp; &amp;nbsp;&lt;span style=&quot;color: rgb(0, 0, 255);&quot;&gt;(FK)&lt;/span&gt;" style="text;strokeColor=none;fillColor=none;align=left;verticalAlign=middle;spacingLeft=4;spacingRight=4;overflow=hidden;points=[[0,0.5],[1,0.5]];portConstraint=eastwest;rotatable=0;whiteSpace=wrap;html=1;" vertex="1" parent="19RlmkvOXlg0cIkhi3ER-15">
          <mxGeometry y="120" width="140" height="30" as="geometry" />
        </mxCell>
        <mxCell id="19RlmkvOXlg0cIkhi3ER-26" value="" style="endArrow=ERoneToMany;html=1;rounded=0;endFill=0;entryX=0.5;entryY=0;entryDx=0;entryDy=0;strokeWidth=2;exitX=0.5;exitY=1;exitDx=0;exitDy=0;exitPerimeter=0;startArrow=ERmandOne;startFill=0;" edge="1" parent="1" source="19RlmkvOXlg0cIkhi3ER-4" target="19RlmkvOXlg0cIkhi3ER-11">
          <mxGeometry width="50" height="50" relative="1" as="geometry">
            <mxPoint x="320" y="380" as="sourcePoint" />
            <mxPoint x="250" y="540" as="targetPoint" />
            <Array as="points" />
          </mxGeometry>
        </mxCell>
        <mxCell id="19RlmkvOXlg0cIkhi3ER-27" value="" style="endArrow=ERoneToMany;html=1;rounded=0;entryX=1;entryY=0.5;entryDx=0;entryDy=0;endFill=0;strokeWidth=2;exitX=0;exitY=0.5;exitDx=0;exitDy=0;" edge="1" parent="1" source="19RlmkvOXlg0cIkhi3ER-8" target="19RlmkvOXlg0cIkhi3ER-13">
          <mxGeometry width="50" height="50" relative="1" as="geometry">
            <mxPoint x="480" y="625" as="sourcePoint" />
            <mxPoint x="460" y="500" as="targetPoint" />
          </mxGeometry>
        </mxCell>
        <mxCell id="19RlmkvOXlg0cIkhi3ER-28" value="" style="endArrow=ERoneToMany;html=1;rounded=0;entryX=0.426;entryY=-0.002;entryDx=0;entryDy=0;strokeWidth=2;endFill=0;exitX=0.507;exitY=0.973;exitDx=0;exitDy=0;exitPerimeter=0;entryPerimeter=0;" edge="1" parent="1" source="19RlmkvOXlg0cIkhi3ER-21" target="19RlmkvOXlg0cIkhi3ER-15">
          <mxGeometry width="50" height="50" relative="1" as="geometry">
            <mxPoint x="320" y="790" as="sourcePoint" />
            <mxPoint x="578.04" y="570" as="targetPoint" />
          </mxGeometry>
        </mxCell>
        <mxCell id="19RlmkvOXlg0cIkhi3ER-29" value="Purchases" style="swimlane;fontStyle=0;childLayout=stackLayout;horizontal=1;startSize=30;horizontalStack=0;resizeParent=1;resizeParentMax=0;resizeLast=0;collapsible=1;marginBottom=0;whiteSpace=wrap;html=1;" vertex="1" parent="1">
          <mxGeometry x="480" y="250" width="190" height="180" as="geometry" />
        </mxCell>
        <mxCell id="19RlmkvOXlg0cIkhi3ER-33" value="purchases_id&amp;nbsp; INT&amp;nbsp;&lt;span style=&quot;color: rgb(255, 128, 0);&quot;&gt;(PK)&lt;/span&gt;" style="text;strokeColor=none;fillColor=none;align=left;verticalAlign=middle;spacingLeft=4;spacingRight=4;overflow=hidden;points=[[0,0.5],[1,0.5]];portConstraint=eastwest;rotatable=0;whiteSpace=wrap;html=1;" vertex="1" parent="19RlmkvOXlg0cIkhi3ER-29">
          <mxGeometry y="30" width="190" height="30" as="geometry" />
        </mxCell>
        <mxCell id="19RlmkvOXlg0cIkhi3ER-30" value="user_id&amp;nbsp; INT&amp;nbsp;&amp;nbsp;&lt;span style=&quot;color: rgb(0, 0, 255);&quot;&gt;(FK)&lt;/span&gt;" style="text;strokeColor=none;fillColor=none;align=left;verticalAlign=middle;spacingLeft=4;spacingRight=4;overflow=hidden;points=[[0,0.5],[1,0.5]];portConstraint=eastwest;rotatable=0;whiteSpace=wrap;html=1;" vertex="1" parent="19RlmkvOXlg0cIkhi3ER-29">
          <mxGeometry y="60" width="190" height="30" as="geometry" />
        </mxCell>
        <mxCell id="19RlmkvOXlg0cIkhi3ER-31" value="product_id&amp;nbsp; INT&amp;nbsp;&lt;span style=&quot;color: rgb(0, 0, 255);&quot;&gt;(FK)&lt;/span&gt;" style="text;strokeColor=none;fillColor=none;align=left;verticalAlign=middle;spacingLeft=4;spacingRight=4;overflow=hidden;points=[[0,0.5],[1,0.5]];portConstraint=eastwest;rotatable=0;whiteSpace=wrap;html=1;" vertex="1" parent="19RlmkvOXlg0cIkhi3ER-29">
          <mxGeometry y="90" width="190" height="30" as="geometry" />
        </mxCell>
        <mxCell id="19RlmkvOXlg0cIkhi3ER-32" value="purchase_date TIMESTAMPZ" style="text;strokeColor=none;fillColor=none;align=left;verticalAlign=middle;spacingLeft=4;spacingRight=4;overflow=hidden;points=[[0,0.5],[1,0.5]];portConstraint=eastwest;rotatable=0;whiteSpace=wrap;html=1;" vertex="1" parent="19RlmkvOXlg0cIkhi3ER-29">
          <mxGeometry y="120" width="190" height="30" as="geometry" />
        </mxCell>
        <mxCell id="19RlmkvOXlg0cIkhi3ER-34" value="quantity INT" style="text;strokeColor=none;fillColor=none;align=left;verticalAlign=middle;spacingLeft=4;spacingRight=4;overflow=hidden;points=[[0,0.5],[1,0.5]];portConstraint=eastwest;rotatable=0;whiteSpace=wrap;html=1;" vertex="1" parent="19RlmkvOXlg0cIkhi3ER-29">
          <mxGeometry y="150" width="190" height="30" as="geometry" />
        </mxCell>
        <mxCell id="19RlmkvOXlg0cIkhi3ER-40" value="" style="endArrow=ERoneToMany;html=1;rounded=0;exitX=0.42;exitY=1.005;exitDx=0;exitDy=0;exitPerimeter=0;entryX=0.57;entryY=0.001;entryDx=0;entryDy=0;entryPerimeter=0;endFill=0;strokeWidth=2;" edge="1" parent="1" source="19RlmkvOXlg0cIkhi3ER-34" target="19RlmkvOXlg0cIkhi3ER-7">
          <mxGeometry width="50" height="50" relative="1" as="geometry">
            <mxPoint x="410" y="400" as="sourcePoint" />
            <mxPoint x="460" y="350" as="targetPoint" />
          </mxGeometry>
        </mxCell>
        <mxCell id="19RlmkvOXlg0cIkhi3ER-41" value="" style="endArrow=ERoneToMany;html=1;rounded=0;exitX=0.989;exitY=0.4;exitDx=0;exitDy=0;exitPerimeter=0;entryX=0.006;entryY=0.387;entryDx=0;entryDy=0;entryPerimeter=0;strokeWidth=2;endFill=0;" edge="1" parent="1" source="19RlmkvOXlg0cIkhi3ER-6" target="19RlmkvOXlg0cIkhi3ER-30">
          <mxGeometry width="50" height="50" relative="1" as="geometry">
            <mxPoint x="378.74" y="330" as="sourcePoint" />
            <mxPoint x="480.00000000000006" y="333.18000000000006" as="targetPoint" />
          </mxGeometry>
        </mxCell>
      </root>
    </mxGraphModel>
  </diagram>
</mxfile>
